<svg xmlns="http://www.w3.org/2000/svg" version="1.1" xmlns:xlink="http://www.w3.org/1999/xlink" width="512" height="512"><svg xmlns="http://www.w3.org/2000/svg" version="1.1" xmlns:xlink="http://www.w3.org/1999/xlink" xmlns:svgjs="http://svgjs.dev/svgjs" width="512" height="512"><svg xmlns="http://www.w3.org/2000/svg" xmlns:xlink="http://www.w3.org/1999/xlink" version="1.1" width="512" height="512" viewBox="0 0 512 512" xml:space="preserve">
<desc>Created with Fabric.js 5.2.4</desc>
<defs>
</defs>
<g transform="matrix(Infinity NaN NaN Infinity 0 0)" id="SvgjsG1003">
</g>
<g transform="matrix(1 0 0 1 256 256)" id="SvgjsG1002">
<rect style="stroke: none; stroke-width: 1; stroke-dasharray: none; stroke-linecap: butt; stroke-dashoffset: 0; stroke-linejoin: miter; stroke-miterlimit: 4; fill: rgb(255,255,255); fill-rule: nonzero; opacity: 1;" vector-effect="non-scaling-stroke" x="-256" y="-256" rx="0" ry="0" width="512" height="512"></rect>
</g>
<g transform="matrix(0.71 0 0 0.71 255.08 255.52)">
<g style="" vector-effect="non-scaling-stroke">
		<g transform="matrix(0.13 0 0 -0.13 -168 0)">
<path style="stroke: none; stroke-width: 1; stroke-dasharray: none; stroke-linecap: butt; stroke-dashoffset: 0; stroke-linejoin: miter; stroke-miterlimit: 4; fill: rgb(0,0,0); fill-rule: nonzero; opacity: 1;" vector-effect="non-scaling-stroke" transform=" translate(-1300, -2560)" d="M 0 2560 L 0 0 L 1300 0 L 2600 0 L 2600 2560 L 2600 5120 L 1300 5120 L 0 5120 L 0 2560 z M 1006 3320 C 1086 3026 1160 2751 1171 2710 C 1197 2609 1257 2337 1266 2275 C 1274 2215 1289 2181 1290 2221 C 1291 2324 1351 2576 1525 3215 C 1609 3523 1683 3794 1689 3818 L 1701 3860 L 2045 3860 C 2433 3860 2403 3867 2371 3778 C 2360 3749 2304 3581 2247 3405 C 2189 3229 2056 2824 1952 2505 C 1847 2186 1735 1845 1703 1748 L 1646 1570 L 1278 1570 L 911 1570 L 775 1988 C 700 2217 601 2520 555 2660 C 369 3227 278 3504 224 3670 C 193 3766 166 3848 163 3853 C 161 3857 317 3859 511 3858 L 862 3855 L 1006 3320 z" stroke-linecap="round"></path>
</g>
		<g transform="matrix(0.13 0 0 -0.13 182.67 0)">
<path style="stroke: none; stroke-width: 1; stroke-dasharray: none; stroke-linecap: butt; stroke-dashoffset: 0; stroke-linejoin: miter; stroke-miterlimit: 4; fill: rgb(0,0,0); fill-rule: nonzero; opacity: 1;" vector-effect="non-scaling-stroke" transform=" translate(-3930, -2560)" d="M 2740 2560 L 2740 0 L 3930 0 L 5120 0 L 5120 2560 L 5120 5120 L 3930 5120 L 2740 5120 L 2740 2560 z M 4300 3821 C 4660 3743 4821 3579 4821 3288 C 4821 3120 4780 3010 4678 2904 C 4633 2857 4600 2833 4544 2808 C 4503 2790 4471 2771 4473 2766 C 4475 2761 4503 2748 4537 2735 C 4770 2651 4884 2462 4867 2191 C 4851 1942 4732 1772 4499 1660 C 4312 1571 4213 1560 3593 1560 L 3100 1560 L 3100 2706 L 3100 3851 L 3648 3848 C 4171 3844 4200 3843 4300 3821 z" stroke-linecap="round"></path>
</g>
		<g transform="matrix(0.13 0 0 -0.13 185.67 -82.47)">
<path style="stroke: none; stroke-width: 1; stroke-dasharray: none; stroke-linecap: butt; stroke-dashoffset: 0; stroke-linejoin: miter; stroke-miterlimit: 4; fill: rgb(0,0,0); fill-rule: nonzero; opacity: 1;" vector-effect="non-scaling-stroke" transform=" translate(-3952.53, -3178.5)" d="M 3722 3178 L 3725 2975 L 3860 2977 C 4022 2979 4091 2998 4139 3058 C 4198 3129 4201 3250 4144 3307 C 4090 3361 4038 3374 3872 3378 L 3720 3382 L 3722 3178 z" stroke-linecap="round"></path>
</g>
		<g transform="matrix(0.13 0 0 -0.13 188.57 37.13)">
<path style="stroke: none; stroke-width: 1; stroke-dasharray: none; stroke-linecap: butt; stroke-dashoffset: 0; stroke-linejoin: miter; stroke-miterlimit: 4; fill: rgb(0,0,0); fill-rule: nonzero; opacity: 1;" vector-effect="non-scaling-stroke" transform=" translate(-3974.3, -2281.5)" d="M 3720 2281 L 3720 2040 L 3863 2040 C 4067 2040 4141 2065 4196 2152 C 4215 2182 4223 2211 4227 2264 C 4231 2328 4229 2341 4203 2390 C 4178 2439 4167 2449 4107 2479 C 4039 2513 4037 2514 3879 2518 L 3720 2523 L 3720 2281 z" stroke-linecap="round"></path>
</g>
</g>
</g>
</svg><style>@media (prefers-color-scheme: light) { :root { filter: none; } }
@media (prefers-color-scheme: dark) { :root { filter: none; } }
</style></svg><style>@media (prefers-color-scheme: light) { :root { filter: none; } }
@media (prefers-color-scheme: dark) { :root { filter: none; } }
</style></svg>